<?xml version="1.0" encoding="utf-8"?>
<!-- Generator: Adobe Illustrator 22.1.0, SVG Export Plug-In . SVG Version: 6.00 Build 0)  -->
<svg version="1.1" id="图层_1" xmlns="http://www.w3.org/2000/svg" xmlns:xlink="http://www.w3.org/1999/xlink" x="0px" y="0px"
	 viewBox="0 0 3348.4 1627.6" style="enable-background:new 0 0 3348.4 1627.6;" xml:space="preserve">
<style type="text/css">
	.st0{fill:#040000;}
	.st1{fill:#E71F19;}
</style>
<path class="st0" d="M3208.1,345L3208.1,345C3208.1,344.9,3208.1,344.9,3208.1,345c-1.9-0.7-3-1.1-3-1.1l-1.7-0.4
	c-25.3-7.6-98.7-24.1-98.7-24.1L1925.8,31.8L1865.3,17c-70.6-12.9-135.8-17.2-192.1-17c-55.8-0.1-120.3,4.3-190.1,17l-60.5,14.8
	L243.8,319.4c0,0-73.4,16.4-98.7,24.1l-1.7,0.4c0,0-1.1,0.4-3,1.1c0,0,0,0,0,0l0,0C120.6,352.5,8.4,400,0,512.9v236.9v212v153
	c6.1,82.3,67.5,129.9,107.9,152.5c32.8,15.7,134.4,40.6,136.7,41.2l1238.5,302.2c69.8,12.7,134.2,17.1,190.1,17
	c56.3,0.2,121.5-4.1,192.1-17l1238.5-302.2c2.3-0.6,103.9-25.4,136.7-41.2c40.4-22.6,101.8-70.2,107.9-152.5v-153v-212V512.9
	C3340.1,400,3227.9,352.5,3208.1,345z M3293,1091.7v9.1h-0.5c-4,42.5-32.5,115.5-172.8,153.2l-1261.9,299.2
	c0,0-80.7,15.3-183.5,16.2c-102.7-0.9-183.4-16.2-183.4-16.2L228.8,1254C88.5,1216.3,60,1143.3,56,1100.8h-0.5v-9.1
	c0-1.7,0-3.3,0-4.8V540.7c0-1.5,0-3.1,0-4.8v-5.8h0.3c2.8-42,29-117.8,173.1-156.6L1490.8,74.3c0,0,80.7-15.3,183.4-16.2
	c102.7,0.9,183.5,16.2,183.5,16.2l1261.9,299.2c144,38.7,170.3,114.6,173.1,156.6h0.3v5.8c0,1.7,0,3.3,0,4.8v546.1
	C3293,1088.4,3293,1090,3293,1091.7z"/>
<path class="st0" d="M1660.2,823.4"/>
<path class="st0" d="M1681.2,814.3"/>
<path class="st0" d="M2263.6,976.4"/>
<polygon class="st0" points="433.4,514.3 630,514.3 630,614.4 511.9,614.4 511.9,751.6 630,751.6 630,851.7 511.9,851.7 
	511.9,1014.2 630,1014.2 630,1114 433.4,1114 "/>
<polygon class="st0" points="2713.7,514.3 2910.3,514.3 2910.3,614.4 2792.3,614.4 2792.3,751.6 2910.3,751.6 2910.3,851.7 
	2792.3,851.7 2792.3,1014.2 2910.3,1014.2 2910.3,1114 2713.7,1114 "/>
<path class="st0" d="M2348.2,754.2c-39.8-37.4-45.9-57.5-45.9-98.5c0-35.9,6-56.6,25.2-59.2c17.2,3.9,20.6,23.9,20.6,59.9V685h11.3
	v0.4h69.2v-31c0-63.1-12.9-139.5-96.5-139.6c-0.3,0-0.6,0-0.9,0c-3.4-0.3-6.8-0.4-10.5-0.4c-81.7-0.1-99.8,77.2-99.8,153.8
	c0,86,26,117.6,74.8,167c48.6,49.2,59.1,68.6,59.1,131c0,15.1-1.2,29.4-4.2,41.1c-8.1,17.8-17,25.5-25.3,27.5
	c-10.3-3.1-18.8-12.6-22.7-17.6c-5-11.3-7.3-27-7.3-47.1v-35.9H2284v-0.4h-69.8v34.5c0,76.6,20.4,145.1,104.2,145.1c0,0,0.1,0,0.1,0
	c3.6,0.3,7.4,0.4,11.2,0.4c84.5,0,107-78.1,107-160.6C2436.7,855.9,2416,818.6,2348.2,754.2z"/>
<path class="st0" d="M1237,991.3"/>
<path class="st1" d="M1681.2,814.3"/>
<path class="st0" d="M733.5,1114V879.1h37.9c43,0,50.3,30.4,50.3,94.6v8.6c0,1,0,1.8,0,2.8l0,0V1114h65.6V984.4H887v-14.2
	c0-107.4-21.7-138.3-36.1-149.2c21-17.9,42.3-61.4,42.3-141.9c0-92.6-34.1-164.7-97.6-164.7H670.3h-2.6h-12.2V1114H733.5z
	 M733.5,628h49.7c28.2,0,42.4,26.7,42.4,74.5c0,20.1-2.2,36.2-6.8,48.5c-7.6,13.1-19.6,19.9-36.8,19.9h-48.5V628z"/>
<path class="st0" d="M995.3,1114V879.1h37.9c43,0,50.3,30.4,50.3,94.6v8.6c0,1,0,1.8,0,2.8l0,0V1114h65.6V984.4h-0.4v-14.2
	c0-107.4-21.7-138.3-36.1-149.2c21-17.9,42.3-61.4,42.3-141.9c0-92.6-34.1-164.7-97.6-164.7H932.1h-2.6h-12.2V1114H995.3z
	 M995.3,628h49.7c28.2,0,42.4,26.7,42.4,74.5c0,20.1-2.2,36.2-6.8,48.5c-7.6,13.1-19.6,19.9-36.8,19.9h-48.5V628z"/>
<path class="st0" d="M1245.9,1114l22.1-143.9h97.2l22.1,143.9h78.7l-92.2-599.6h-114.6l-92.2,599.6H1245.9z M1316.6,653.8
	l34.7,225.9h-69.4L1316.6,653.8z"/>
<polygon class="st0" points="1641.9,1114 1642.2,712.4 1642.2,710.6 1644.8,728.6 1690.6,1114 1764.2,1114 1810,728.6 1812.6,710.6 
	1812.6,712.4 1812.9,1114 1886.8,1114 1886.8,514.3 1879.1,514.3 1875.2,514.3 1865.2,514.3 1781,514.3 1727.4,966.6 1675.3,514.3 
	1589.7,514.3 1579.6,514.3 1575.8,514.3 1568,514.3 1568,1114 "/>
<path class="st0" d="M1986,1114l22.1-143.9h97.2l22.1,143.9h78.7L2114,514.3h-114.6l-92.2,599.6H1986z M2056.7,653.8l34.7,225.9
	H2022L2056.7,653.8z"/>
<path class="st0" d="M3014.1,1114V879.1h37.9c43,0,50.3,30.4,50.3,94.6v8.6c0,1,0,1.8,0,2.8l0,0V1114h65.6V984.4h-0.4v-14.2
	c0-107.4-21.7-138.3-36.1-149.2c21-17.9,42.3-61.4,42.3-141.9c0-92.6-34.1-164.7-97.6-164.7H2951h-2.6h-12.2V1114H3014.1z
	 M3014.1,628h49.7c28.2,0,42.4,26.7,42.4,74.5c0,20.1-2.2,36.2-6.8,48.5c-7.6,13.1-19.6,19.9-36.8,19.9h-48.5V628z"/>
<polygon class="st0" points="174.7,514.3 174.7,604.4 247.7,604.4 247.7,1114 325.7,1114 325.7,604.4 407.4,604.4 407.4,514.3 "/>
<polygon class="st0" points="2687.6,514.3 2454.9,514.3 2454.9,604.4 2527.8,604.4 2527.8,1114 2605.9,1114 2605.9,604.4 
	2687.6,604.4 "/>
</svg>
