<?xml version="1.0" encoding="utf-8"?>
<!-- Generator: Adobe Illustrator 22.1.0, SVG Export Plug-In . SVG Version: 6.00 Build 0)  -->
<svg version="1.1" id="图层_1" xmlns="http://www.w3.org/2000/svg" xmlns:xlink="http://www.w3.org/1999/xlink" x="0px" y="0px"
	 viewBox="0 0 3655.1 1776.8" style="enable-background:new 0 0 3655.1 1776.8;" xml:space="preserve">
<style type="text/css">
	.st0{fill:#000;}
	.st1{fill:#000;}
	.st2{fill:none;}
</style>
<path class="st0" d="M3462.6,397.1L3462.6,397.1C3462.6,397.1,3462.6,397.1,3462.6,397.1c-2.1-0.8-3.2-1.2-3.2-1.2l-1.8-0.4
	c-26.9-8.1-105.2-25.7-105.2-25.7L2095.6,63.2l-64.5-15.7c-75.3-13.7-144.8-18.3-204.8-18.1c-59.5-0.1-128.2,4.6-202.6,18.1
	l-64.5,15.7L302.4,369.8c0,0-78.3,17.5-105.2,25.7l-1.8,0.4c0,0-1.1,0.4-3.2,1.2c0,0,0,0,0,0l0,0c-21.1,8-140.7,58.7-149.6,179
	v252.5v226v163.1c6.5,87.8,71.9,138.5,115,162.6c35,16.8,143.3,43.3,145.8,43.9l1320.4,322.1c74.4,13.6,143.1,18.2,202.6,18.1
	c60,0.2,129.5-4.4,204.8-18.1l1320.4-322.1c2.5-0.6,110.8-27.1,145.8-43.9c43.1-24.1,108.5-74.8,115-162.6v-163.1v-226V576.1
	C3603.3,455.8,3483.7,405.1,3462.6,397.1z M3553.1,1193.2v9.7h-0.6c-4.2,45.3-34.6,123.1-184.2,163.4l-1345.3,319
	c0,0-86.1,16.3-195.6,17.3c-109.5-1-195.6-17.3-195.6-17.3l-1345.3-319c-149.6-40.2-180-118-184.2-163.4h-0.6v-9.7
	c0-1.8,0-3.5,0-5.2V605.8c0-1.6,0-3.4,0-5.2v-6.2h0.3c3-44.7,30.9-125.6,184.5-166.9l1345.3-319c0,0,86-16.3,195.6-17.3
	c109.5,1,195.6,17.3,195.6,17.3l1345.3,319c153.6,41.3,181.5,122.2,184.5,166.9h0.3v6.2c0,1.8,0,3.5,0,5.2V1188
	C3553.1,1189.6,3553.1,1191.4,3553.1,1193.2z"/>
<g>
	<path class="st0" d="M1811.2,907.8"/>
	<path class="st0" d="M1831.5,897"/>
	<path class="st0" d="M2397.8,1087.9"/>
	<polygon class="st0" points="489.6,543.9 680.7,543.9 680.7,661.7 565.9,661.7 565.9,823.3 680.7,823.3 680.7,941.1 565.9,941.1 
		565.9,1132.5 680.7,1132.5 680.7,1250 489.6,1250 	"/>
	<polygon class="st0" points="2960,543.9 3151.1,543.9 3151.1,661.7 3036.4,661.7 3036.4,823.3 3151.1,823.3 3151.1,941.1 
		3036.4,941.1 3036.4,1132.4 3151.1,1132.4 3151.1,1249.9 2960,1249.9 	"/>
	<path class="st0" d="M2551.1,826.4c-38.7-44-44.6-67.7-44.6-116c0-42.3,5.9-66.6,24.5-69.8c16.7,4.6,20.1,28.1,20.1,70.6v33.7h11
		v0.5h67.3v-36.6c0-74.2-12.5-164.3-93.8-164.4c-0.3,0-0.6,0-0.8,0c-3.3-0.3-6.7-0.5-10.2-0.5c-79.5-0.1-97,90.9-97,181.1
		c0,101.3,25.3,138.5,72.7,196.6c47.2,57.9,57.4,80.7,57.4,154.3c0,17.7-1.1,34.6-4.1,48.4c-7.9,21-16.5,30-24.6,32.4
		c-10-3.6-18.3-14.8-22.1-20.8c-4.8-13.3-7.1-31.8-7.1-55.4v-42.3h-11v-0.5h-67.9v40.6c0,90.1,19.8,170.8,101.3,170.8
		c0,0,0.1,0,0.1,0c3.5,0.3,7.1,0.5,10.9,0.5c82.2,0,104-92,104-189.1C2637.1,946.1,2617,902.1,2551.1,826.4z"/>
	<path class="st0" d="M1399.6,1105.5"/>
	<path class="st1" d="M1831.5,897"/>
	<path class="st0" d="M823,1249.9V973.4h36.9c41.8,0,48.9,35.8,48.9,111.4v10.1c0,1.1,0,2.2,0,3.3l0,0v151.7h63.8v-152.6h-0.4v-16.7
		c0-126.4-21.1-162.8-35.1-175.7c20.4-21,41.1-72.3,41.1-167.1c0-109.1-33.2-193.9-94.9-193.9H761.6h-2.5h-11.8v706H823z M823,677.7
		h48.3c27.4,0,41.2,31.5,41.2,87.7c0,23.7-2.1,42.6-6.6,57.1c-7.4,15.4-19,23.5-35.8,23.5H823V677.7z"/>
	<path class="st0" d="M1119.1,1249.9V973.4h36.9c41.8,0,48.9,35.8,48.9,111.4v10.1c0,1.1,0,2.2,0,3.3l0,0v151.7h63.8v-152.6h-0.4
		v-16.7c0-126.4-21.1-162.8-35.1-175.7c20.4-21,41.1-72.3,41.1-167.1c0-109.1-33.2-193.9-94.9-193.9h-121.8h-2.5h-11.8v706H1119.1z
		 M1119.1,677.7h48.3c27.4,0,41.2,31.5,41.2,87.7c0,23.7-2.1,42.6-6.6,57.1c-7.4,15.4-19,23.5-35.8,23.5h-47.1V677.7z"/>
	<path class="st0" d="M1389.6,1249.9l21.5-169.4h94.5l21.5,169.4h76.5l-89.6-706h-111.4l-89.6,706H1389.6z M1458.3,708.2l33.8,265.9
		h-67.5L1458.3,708.2z"/>
	<polygon class="st0" points="1810.8,1249.9 1811.1,777.1 1811.1,775 1813.6,796.2 1858.2,1249.9 1929.7,1249.9 1974.3,796.2 
		1976.8,775 1976.8,777.1 1977.1,1249.9 2048.9,1249.9 2048.9,543.9 2041.4,543.9 2037.6,543.9 2027.9,543.9 1946,543.9 
		1893.9,1076.4 1843.3,543.9 1760,543.9 1750.3,543.9 1746.5,543.9 1739,543.9 1739,1249.9 	"/>
	<path class="st0" d="M2172.1,1249.9l21.5-169.4h94.5l21.5,169.4h76.5l-89.6-706h-111.4l-89.6,706H2172.1z M2240.9,708.2l33.8,265.9
		h-67.5L2240.9,708.2z"/>
	<path class="st0" d="M3293.7,1249.9V973.4h36.9c41.8,0,48.9,35.8,48.9,111.4v10.1c0,1.1,0,2.2,0,3.3l0,0v151.7h63.8v-152.6h-0.4
		v-16.7c0-126.4-21.1-162.8-35.1-175.7c20.4-21,41.1-72.3,41.1-167.1c0-109.1-33.2-193.9-94.9-193.9h-121.8h-2.5h-11.8v706H3293.7z
		 M3293.7,677.7h48.3c27.4,0,41.2,31.5,41.2,87.7c0,23.7-2.1,42.6-6.6,57.1c-7.4,15.4-19,23.5-35.8,23.5h-47.1V677.7z"/>
	<polygon class="st0" points="205.8,543.9 205.8,650 276.8,650 276.8,1249.9 352.7,1249.9 352.7,650 432.1,650 432.1,543.9 	"/>
	<polygon class="st0" points="2907.8,543.9 2681.6,543.9 2681.6,650 2752.5,650 2752.5,1249.9 2828.4,1249.9 2828.4,650 2907.8,650 
			"/>
</g>
<line class="st2" x1="7.4" y1="896.9" x2="3647.4" y2="896.9"/>
</svg>
